<?xml version="1.0" encoding="utf-8"?>
<!-- Generator: Adobe Illustrator 24.0.0, SVG Export Plug-In . SVG Version: 6.00 Build 0)  -->
<svg version="1.1" id="Layer_1" focusable="false" xmlns="http://www.w3.org/2000/svg" xmlns:xlink="http://www.w3.org/1999/xlink"
	 x="0px" y="0px" viewBox="0 0 512 512" style="enable-background:new 0 0 512 512;" xml:space="preserve">
<style type="text/css">
	.st0{fill:#FFFFFF;}
</style>
<path class="st0" d="M305,192v32c0,6.6-5.4,12-12,12h-56v56c0,6.6-5.4,12-12,12h-32c-6.6,0-12-5.4-12-12v-56h-56
	c-6.6,0-12-5.4-12-12v-32c0-6.6,5.4-12,12-12h56v-56c0-6.6,5.4-12,12-12h32c6.6,0,12,5.4,12,12v56h56C299.6,180,305,185.4,305,192z
	 M506,476.7L477.7,505c-9.4,9.4-24.6,9.4-33.9,0L344,405.3c-4.5-4.5-7-10.6-7-17V372c-35.3,27.6-79.7,44-128,44
	C94.1,416,1,322.9,1,208S94.1,0,209,0s208,93.1,208,208c0,48.3-16.4,92.7-44,128h16.3c6.4,0,12.5,2.5,17,7l99.7,99.7
	C515.3,452.1,515.3,467.3,506,476.7z M345,208c0-75.2-60.8-136-136-136S73,132.8,73,208s60.8,136,136,136S345,283.2,345,208z"/>
</svg>
